IKResults
version=1
nRows=9
nColumns=63
inDegrees=yes

Units are S.I. units (second, meters, Newtons, ...)
If the header above contains a line with 'inDegrees', this indicates whether rotational values are in degrees (yes) or radians (no).

endheader
time	pelvis_tilt	pelvis_list	pelvis_rotation	pelvis_tx	pelvis_ty	pelvis_tz	hip_flexion_r	hip_adduction_r	hip_rotation_r	knee_angle_r	knee_angle_r_beta	ankle_angle_r	subtalar_angle_r	mtp_angle_r	hip_flexion_l	hip_adduction_l	hip_rotation_l	knee_angle_l	knee_angle_l_beta	ankle_angle_l	subtalar_angle_l	mtp_angle_l	L5_S1_Flex_Ext	L5_S1_Lat_Bending	L5_S1_axial_rotation	L4_L5_Flex_Ext	L4_L5_Lat_Bending	L4_L5_axial_rotation	L3_L4_Flex_Ext	L3_L4_Lat_Bending	L3_L4_axial_rotation	L2_L3_Flex_Ext	L2_L3_Lat_Bending	L2_L3_axial_rotation	L1_L2_Flex_Ext	L1_L2_Lat_Bending	L1_L2_axial_rotation	L1_T12_Flex_Ext	L1_T12_Lat_Bending	L1_T12_axial_rotation	Abs_r3	Abs_r2	Abs_r1	Abs_t1	Abs_t2	neck_flexion	neck_bending	neck_rotation	arm_flex_r	arm_add_r	arm_rot_r	elbow_flex_r	pro_sup_r	wrist_flex_r	wrist_dev_r	arm_flex_l	arm_add_l	arm_rot_l	elbow_flex_l	pro_sup_l	wrist_flex_l	wrist_dev_l
      1.76666667	     16.05809703	    -20.21592166	    -38.91172845	     -0.59470765	      0.65408949	     -0.68489591	    -16.61296498	    -15.42787683	     25.88467363	     61.61976885	      1.07546785	      0.00000000	      0.00000000	      0.00000000	      2.75587270	    -16.16649178	     23.39971178	    115.28652782	      2.01212949	      1.42586068	    -19.74651255	      0.00000000	     -6.26458376	      0.36590678	     -2.06744074	    -11.63395851	      0.48665602	     -2.19665578	    -10.29208466	      0.88966574	     -2.19665578	     -7.15979278	      0.88966574	     -1.80901064	     -5.81729248	      0.74615711	     -1.67979560	     -3.57958316	      0.56678960	     -1.55058055	    -44.74729536	      4.13921068	    -11.49848514	      0.00000000	      0.00000000	     17.79738750	     -0.20310476	     -3.18174916	      4.21338827	     -4.60587623	     -6.14316370	     42.23071696	     89.99559364	      0.00000000	      0.00000000	      2.48692794	    -17.56951678	     11.94276463	     35.52358312	     89.99559364	      0.00000000	      0.00000000
      1.80000000	     14.40191391	    -18.59077977	    -39.46238642	     -0.58881399	      0.63281043	     -0.67217072	    -15.87123293	    -17.50999071	     27.14578925	     57.89218362	      1.01040922	      0.00000000	      0.00000000	      0.00000000	      5.46910313	    -16.49158298	     24.19466255	    117.70098489	      2.05426972	      0.64088750	    -19.74971936	      0.00000000	     -6.09559131	      0.38428095	     -2.10417431	    -11.32012261	      0.51109367	     -2.23568521	    -10.01444696	      0.93434071	     -2.23568521	     -6.96665130	      0.93434071	     -1.84115252	     -5.66036609	      0.78362572	     -1.70964163	     -3.48302087	      0.59525119	     -1.57813073	    -43.54019914	      4.34706298	    -11.70278626	      0.00000000	      0.00000000	     18.67253785	     -0.34672768	     -1.78947039	      3.73456154	     -5.62451525	     -4.48372987	     42.61467576	     89.99559364	      0.00000000	      0.00000000	      3.23786788	    -18.41791128	     14.77697250	     35.12201246	     89.99559364	      0.00000000	      0.00000000
      1.83333333	     13.11919686	    -16.85251932	    -40.63132938	     -0.58417300	      0.61478942	     -0.65908771	    -15.38817969	    -19.95954520	     28.45384082	     54.22734225	      0.94644567	      0.00000000	      0.00000000	      0.00000000	      7.15885370	    -16.73029557	     23.78419261	    119.20043667	      2.08044009	      0.05208525	    -19.75220324	      0.00000000	     -5.95547631	      0.34173719	     -2.02914117	    -11.05991505	      0.45451046	     -2.15596250	     -9.78425203	      0.83089980	     -2.15596250	     -6.80651387	      0.83089980	     -1.77549853	     -5.53025530	      0.69687047	     -1.64867720	     -3.40295916	      0.52935090	     -1.52185588	    -42.53937173	      3.86579940	    -11.28547447	      0.00000000	      0.00000000	     19.40763028	     -0.42794349	     -0.57044719	      3.14741703	     -6.29120803	     -3.66035326	     42.94909380	     89.99559364	      0.00000000	      0.00000000	      3.80187801	    -19.16780336	     16.27192138	     35.09552808	     89.99559364	      0.00000000	      0.00000000
      1.86666667	     12.26629389	    -15.29361385	    -42.25422848	     -0.58063743	      0.60059399	     -0.64554504	    -15.22381482	    -22.39591943	     29.80633151	     50.79115495	      0.88647288	      0.00000000	      0.00000000	      0.00000000	      7.62745927	    -17.16500039	     22.30395504	    119.70049150	      2.08916769	     -0.43334595	    -19.75737785	      0.00000000	     -5.87353179	      0.25930997	     -1.86465844	    -10.90773589	      0.34488226	     -1.98119959	     -9.64962538	      0.63048626	     -1.98119959	     -6.71285948	      0.63048626	     -1.63157613	     -5.45416162	      0.52878489	     -1.51503498	     -3.35613606	      0.40167115	     -1.39849383	    -41.95405022	      2.93336626	    -10.37067083	      0.00000000	      0.00000000	     19.89023241	     -0.48085655	      0.59359782	      2.62259424	     -6.73592470	     -2.93410353	     43.12166333	     89.99559364	      0.00000000	      0.00000000	      4.24675153	    -20.01294825	     17.23537915	     35.38037052	     89.99559364	      0.00000000	      0.00000000
      1.90000000	     11.16508627	    -13.31390459	    -44.28628923	     -0.57777195	      0.58836029	     -0.63234654	    -14.10636617	    -24.71279336	     31.48381669	     48.20407417	      0.84131981	      0.00000000	      0.00000000	      0.00000000	      8.24620315	    -17.54308307	     20.21233743	    119.79508359	      2.09081864	     -0.86696199	    -19.75986341	      0.00000000	     -5.70272666	      0.15564202	     -1.65296757	    -10.59053367	      0.20700389	     -1.75627805	     -9.36900962	      0.37842801	     -1.75627805	     -6.51764630	      0.37842801	     -1.44634663	     -5.29555197	      0.31738521	     -1.34303615	     -3.25853801	      0.24108949	     -1.23972568	    -40.73400623	      1.76065369	     -9.19330976	      0.00000000	      0.00000000	     20.19297484	     -0.23682718	      1.91889452	      2.17347349	     -7.21818935	     -1.63106029	     42.92264347	     89.99559364	      0.00000000	      0.00000000	      4.76769307	    -21.23812078	     19.88290501	     35.69682362	     89.99559364	      0.00000000	      0.00000000
      1.93333333	      9.83265469	    -11.08114585	    -45.51364447	     -0.57375517	      0.57783808	     -0.62050507	    -12.95618772	    -26.51386418	     32.11546630	     45.92555071	      0.80155207	      0.00000000	      0.00000000	      0.00000000	      9.51668002	    -17.76524405	     18.88482717	    119.81153622	      2.09110579	     -1.24310978	    -19.75806552	      0.00000000	     -5.45244874	      0.09560557	     -1.58681032	    -10.12574255	      0.12715541	     -1.68598596	     -8.95782803	      0.23245539	     -1.68598596	     -6.23160366	      0.23245539	     -1.38845903	     -5.06314390	      0.19495888	     -1.28928338	     -3.11552921	      0.14809303	     -1.19010774	    -38.94629608	      1.08150935	     -8.82536295	      0.00000000	      0.00000000	     20.10330303	     -0.07959377	      3.25474097	      1.63494733	     -7.61124143	     -0.72177168	     42.75565427	     89.99559364	      0.00000000	      0.00000000	      4.67784932	    -22.04901668	     20.51049523	     36.27280884	     89.99559364	      0.00000000	      0.00000000
      1.96666667	      8.14667934	     -8.70666904	    -46.21855058	     -0.56874690	      0.56890983	     -0.60999011	    -11.45059328	    -27.65572016	     32.23236030	     44.17506665	      0.77100036	      0.00000000	      0.00000000	      0.00000000	     11.35961396	    -18.00941927	     18.05621030	    119.78143933	      2.09058050	     -1.54405718	    -19.75431149	      0.00000000	     -5.12764594	      0.08781801	     -1.59694594	     -9.52255128	      0.11679795	     -1.69675506	     -8.42420952	      0.21352071	     -1.69675506	     -5.86038655	      0.21352071	     -1.39732770	     -4.76153202	      0.17907848	     -1.29751858	     -2.92993689	      0.13603009	     -1.19770946	    -36.62626222	      0.99341487	     -8.88173425	      0.00000000	      0.00000000	     19.66709292	     -0.15501298	      4.65543186	      1.03484989	     -8.16047247	      0.28892789	     42.70613261	     89.99559364	      0.00000000	      0.00000000	      4.36282608	    -22.63152110	     20.82683270	     36.94232899	     89.99559364	      0.00000000	      0.00000000
      2.00000000	      6.14334341	     -6.19369108	    -46.50061774	     -0.56269572	      0.56142528	     -0.60047089	     -9.50176470	    -28.16685812	     32.08883928	     43.09803890	      0.75220268	      0.00000000	      0.00000000	      0.00000000	     13.68123120	    -18.20565239	     17.59599469	    119.67553603	      2.08873214	     -1.84157609	    -19.75095475	      0.00000000	     -4.73155964	      0.11795528	     -1.67783677	     -8.78697940	      0.15688052	     -1.78270157	     -7.77347933	      0.28679646	     -1.78270157	     -5.40769951	      0.28679646	     -1.46810718	     -4.39372628	      0.24053440	     -1.36324238	     -2.70361318	      0.18271272	     -1.25837758	    -33.79705734	      1.33433366	     -9.33162478	      0.00000000	      0.00000000	     18.96231026	     -0.19024864	      6.17589127	      0.55271872	     -8.77340963	      1.37971214	     42.29148119	     89.99559364	      0.00000000	      0.00000000	      3.69990520	    -22.95655927	     20.60434039	     37.62949189	     89.99559364	      0.00000000	      0.00000000
      2.03333333	      4.03200496	     -3.70931135	    -46.30844799	     -0.55558510	      0.55563414	     -0.59158443	     -7.49545054	    -28.16967345	     31.53748714	     42.51400175	      0.74200931	      0.00000000	      0.00000000	      0.00000000	     16.11920949	    -18.29883212	     17.47650653	    119.35634786	      2.08316125	     -2.11487348	    -19.74598736	      0.00000000	     -4.30844235	      0.16981972	     -1.85149084	     -8.00120828	      0.22586023	     -1.96720902	     -7.07833993	      0.41289968	     -1.96720902	     -4.92411876	      0.41289968	     -1.62005449	     -4.00081956	      0.34629638	     -1.50433631	     -2.46184396	      0.26305075	     -1.38861813	    -30.77477283	      1.92103468	    -10.29743662	      0.00000000	      0.00000000	     18.07859436	     -0.20718444	      7.47361608	      0.32326841	     -9.41658594	      2.66396988	     41.46814549	     89.99559364	      0.00000000	      0.00000000	      2.53190281	    -22.76953524	     18.26264202	     38.20368995	     89.99559364	      0.00000000	      0.00000000
